<?xml version="1.0" encoding="UTF-8" standalone="no"?>
<!-- Generator: Adobe Illustrator 16.0.0, SVG Export Plug-In . SVG Version: 6.00 Build 0)  -->

<svg
   xmlns:dc="http://purl.org/dc/elements/1.1/"
   xmlns:cc="http://creativecommons.org/ns#"
   xmlns:rdf="http://www.w3.org/1999/02/22-rdf-syntax-ns#"
   xmlns:svg="http://www.w3.org/2000/svg"
   xmlns="http://www.w3.org/2000/svg"
   xmlns:sodipodi="http://sodipodi.sourceforge.net/DTD/sodipodi-0.dtd"
   xmlns:inkscape="http://www.inkscape.org/namespaces/inkscape"
   version="1.1"
   id="Capa_1"
   x="0px"
   y="0px"
   width="612.014px"
   height="612.014px"
   viewBox="0 0 612.014 612.014"
   style="enable-background:new 0 0 612.014 612.014;"
   xml:space="preserve"
   inkscape:version="0.91 r13725"
   sodipodi:docname="zoom.svg"><metadata
     id="metadata4260"><rdf:RDF><cc:Work
         rdf:about=""><dc:format>image/svg+xml</dc:format><dc:type
           rdf:resource="http://purl.org/dc/dcmitype/StillImage" /><dc:title></dc:title></cc:Work></rdf:RDF></metadata><defs
     id="defs4258" /><sodipodi:namedview
     pagecolor="#ffffff"
     bordercolor="#666666"
     borderopacity="1"
     objecttolerance="10"
     gridtolerance="10"
     guidetolerance="10"
     inkscape:pageopacity="0"
     inkscape:pageshadow="2"
     inkscape:window-width="1855"
     inkscape:window-height="1056"
     id="namedview4256"
     showgrid="false"
     inkscape:zoom="1.5015997"
     inkscape:cx="306.00699"
     inkscape:cy="306.00699"
     inkscape:window-x="65"
     inkscape:window-y="24"
     inkscape:window-maximized="1"
     inkscape:current-layer="g4222" /><g
     id="g4219"
     inkscape:export-filename="/home/jacob/byu_classes/cpp_gui/final-project-jacobmoroni/src/qt_planner/resources/images/zoom_in.png"
     inkscape:export-xdpi="90"
     inkscape:export-ydpi="90"><g
       id="Zoom__x2B_"><g
         id="g4222"><path
           d="m 153.105,229.669 0,76.553 229.657,0 0,-76.553 z M 598.221,531.593 487.641,421.051 C 517.955,377.608 535.869,324.902 535.869,267.946 535.869,119.97 415.911,0.012 267.935,0.012 119.959,0.012 0,119.97 0,267.946 0,415.922 119.958,535.88 267.934,535.88 c 56.956,0 109.662,-17.913 153.105,-48.228 l 110.542,110.542 c 18.411,18.41 48.229,18.41 66.64,0 18.411,-18.411 18.372,-48.19 0,-66.601 z M 267.934,459.327 c -105.681,0 -191.381,-85.7 -191.381,-191.381 0,-105.681 85.701,-191.381 191.381,-191.381 105.681,0 191.381,85.701 191.381,191.381 0,105.681 -85.7,191.381 -191.381,191.381 z"
           id="path4224"
           inkscape:connector-curvature="0"
           sodipodi:nodetypes="cccccccssssccccsssss" /></g></g></g><g
     id="g4226" /><g
     id="g4228" /><g
     id="g4230" /><g
     id="g4232" /><g
     id="g4234" /><g
     id="g4236" /><g
     id="g4238" /><g
     id="g4240" /><g
     id="g4242" /><g
     id="g4244" /><g
     id="g4246" /><g
     id="g4248" /><g
     id="g4250" /><g
     id="g4252" /><g
     id="g4254" /></svg>